<svg width="734" height="647" viewBox="0 0 734 647" fill="none" xmlns="http://www.w3.org/2000/svg" xmlns:xlink="http://www.w3.org/1999/xlink">
<rect width="734" height="647" fill="url(#pattern0)"/>
<defs>
<pattern id="pattern0" patternContentUnits="objectBoundingBox" width="1" height="1">
<use xlink:href="#image0_1_86" transform="translate(-0.00960065) scale(0.0013773 0.0015625)"/>
</pattern>
<image id="image0_1_86" width="740" height="640" xlink:href="image/home.png"/>
</defs>
<path d="M222 537.764L442.8 545.852L512 532.002V553.939L443.5 573.855L222 562.734V537.764Z" fill="#3595F6" fill-opacity="0.75"/>
<path d="M223 536.753V511.48L443.3 514.816L513 511.48V531.698L443.7 544.841L223 536.753Z" fill="#3595F6" fill-opacity="0.75"/>
<path d="M223 510.469V485.195H444H513V508.447L445 515.523L223 510.469Z" fill="#3595F6" fill-opacity="0.75"/>
<path d="M223 486.206V460.933L444.3 457.192L512 463.966V486.206H444" fill="#3595F6" fill-opacity="0.75"/>
<path d="M223 459.922V433.638L444.5 430.301L513 441.422V462.955L444 456.181L223 459.922Z" fill="#3595F6" fill-opacity="0.75"/>
<path d="M222 432.626V408.667L443 396.233L514 419.484V441.017L443 428.583L222 432.626Z" fill="#3595F6" fill-opacity="0.75"/>
<path d="M222 410.386V385.113L444.2 368.634L514 397.547V418.474L443.7 396.536L222 410.386Z" fill="#3595F6" fill-opacity="0.75"/>
<path d="M222 385.113V359.839L444.5 339.317L514 376.317V397.244L442 368.23L222 385.113Z" fill="#3595F6" fill-opacity="0.75"/>
<path d="M222 358.828V334.566L445 309.595L514 354.077V376.014L444.7 337.598L222 358.828Z" fill="#3595F6" fill-opacity="0.75"/>
<path d="M222 333.555V309.292L444.5 280.278L514 331.836V352.763L443.7 310L222 333.555Z" fill="#3595F6" fill-opacity="0.75"/>
<path d="M221 309.292V285.03L443.3 251.669L514 311.617V331.533L444 280.278L221 309.292Z" fill="#3595F6" fill-opacity="0.75"/>
<path d="M222 284.019V259.756L443.2 224.373L513 289.073V310.303L444.3 251.365L222 284.019Z" fill="#3595F6" fill-opacity="0.75"/>
<path d="M222 259.756V234.483L444.3 196.067L513 267.136V288.062L444 223.362L222 259.756Z" fill="#3595F6" fill-opacity="0.75"/>
<path d="M222 233.472V208.198L442.8 164.021L513 243.885V266.833L444 192.731L222 233.472Z" fill="#3595F6" fill-opacity="0.75"/>
<path d="M223 209.209V183.936L443 135.411L513 221.341V244.592L442.3 164.425L223 209.209Z" fill="#3595F6" fill-opacity="0.75"/>
<path d="M222 183.936V158.662L441.8 106.094L513 199.403V222.352L443.3 135.108L222 183.936Z" fill="#3595F6" fill-opacity="0.75"/>
<path d="M222 158.662V132.378L444 75.0579L513 177.87V199.1L443.7 106.397L222 158.662Z" fill="#3595F6" fill-opacity="0.75"/>

</svg>
